<?xml version="1.0" encoding="UTF-8" standalone="no"?><!DOCTYPE svg PUBLIC "-//W3C//DTD SVG 1.1//EN" "http://www.w3.org/Graphics/SVG/1.1/DTD/svg11.dtd"><svg width="100%" height="100%" viewBox="0 0 206 229" version="1.1" xmlns="http://www.w3.org/2000/svg" xmlns:xlink="http://www.w3.org/1999/xlink" xml:space="preserve" xmlns:serif="http://www.serif.com/" style="fill-rule:evenodd;clip-rule:evenodd;stroke-linejoin:round;stroke-miterlimit:2;"><path d="M74.663,147.392c13.604,30.271 38.625,47.817 71.1,47.817c25.45,0 46.079,-10.971 55.296,-28.95l4.392,1.321c-11.85,38.163 -45.217,60.521 -90.413,60.521c-66.729,0 -115.038,-48.242 -115.038,-114.921c0,-65.804 47.004,-113.179 113.287,-113.179c46.096,0 85.146,22.808 85.146,55.279c0,18.879 -13.596,38.179 -37.754,50.013l-86.017,42.1Zm-11.858,-60.521c0,19.733 3.067,37.271 8.325,52.183l11.875,-5.7c34.246,-16.658 60.788,-46.05 60.788,-79.829c0,-26.321 -19.1,-42.275 -38.408,-42.275c-24.596,0.004 -42.579,26.471 -42.579,75.621Z" style="fill:#fff;fill-rule:nonzero;"/></svg>