<?xml version="1.0" encoding="UTF-8" standalone="no"?><!DOCTYPE svg PUBLIC "-//W3C//DTD SVG 1.1//EN" "http://www.w3.org/Graphics/SVG/1.1/DTD/svg11.dtd"><svg width="100%" height="100%" viewBox="0 0 199 231" version="1.1" xmlns="http://www.w3.org/2000/svg" xmlns:xlink="http://www.w3.org/1999/xlink" xml:space="preserve" xmlns:serif="http://www.serif.com/" style="fill-rule:evenodd;clip-rule:evenodd;stroke-linejoin:round;stroke-miterlimit:2;"><path d="M60.15,91.483c0,65.529 32.325,118.104 76.446,118.104c9.908,0 13.704,-2.879 13.704,-7.354l0,-36.671c0,-16.629 -3.521,-27.504 -9.583,-30.383l0,-1.604l55.708,-12.763l0,109.3l-3.871,0c-8.321,-10.542 -15.983,-13.962 -26.217,-13.962c-17.904,0 -30.692,13.962 -59.163,13.962c-50.833,0 -107.175,-42.2 -107.175,-113.688c0,-71.471 56.983,-116.425 121.571,-116.425c38.046,0 71.887,17.454 76.917,41.396c3.254,15.542 -10.325,31.792 -27.321,31.033c-17.321,-0.783 -25.892,-13.746 -26.65,-24.592c-1.579,-22.371 -11.438,-35.35 -33.817,-35.35c-33.25,-0.004 -50.55,28.504 -50.55,78.996Z" style="fill:#fff;fill-rule:nonzero;"/></svg>