<?xml version="1.0" encoding="utf-8"?>
<!-- Generator: Adobe Illustrator 16.0.3, SVG Export Plug-In . SVG Version: 6.00 Build 0)  -->
<!DOCTYPE svg PUBLIC "-//W3C//DTD SVG 1.1//EN" "http://www.w3.org/Graphics/SVG/1.1/DTD/svg11.dtd">
<svg version="1.1" id="Layer_1" xmlns="http://www.w3.org/2000/svg" xmlns:xlink="http://www.w3.org/1999/xlink" x="0px" y="0px"
	 width="376px" height="173px" viewBox="0 0 376 173" enable-background="new 0 0 376 173" xml:space="preserve">
<g>
	<path d="M48.568,101.268c1.999-0.946,3.162-4.525,3.162-9.999V62.845c0-5.473-1.163-9.056-3.162-10.002v-0.526l17.908-3.159v42.112
		c0,5.474,1.159,9.053,3.16,9.999v0.528H48.568V101.268z"/>
	<path d="M78.063,101.268c2-0.946,3.159-4.525,3.159-9.999V62.845c0-5.473-1.159-9.056-3.159-10.002v-0.526l17.906-3.159v10.74
		c4.951-7.265,12.328-11.792,19.699-11.792c8.851,0,14.013,6.634,14.013,17.9v25.265c0,5.474,1.155,9.053,3.158,9.999v0.528h-21.069
		v-0.528c2.002-0.946,3.162-4.525,3.162-9.999V66.004c0-7.162-2.738-11.057-7.581-11.057c-4.428,0-8.22,3.057-11.381,8.954v27.368
		c0,5.474,1.161,9.053,3.161,9.999v0.528H78.063V101.268z"/>
	<path d="M152.001,69.732c0,15.727,7.758,28.345,18.347,28.345c2.378,0,3.289-0.691,3.289-1.765v-8.801
		c0-3.991-0.845-6.601-2.3-7.292v-0.385l13.37-3.063v26.232h-0.929c-1.997-2.53-3.836-3.351-6.292-3.351
		c-4.297,0-7.366,3.351-14.199,3.351c-12.2,0-25.722-10.128-25.722-27.285c0-17.153,13.676-27.942,29.177-27.942
		c9.131,0,17.253,4.189,18.46,9.935c0.781,3.73-2.478,7.63-6.557,7.448c-4.157-0.188-6.214-3.299-6.396-5.902
		c-0.379-5.369-2.745-8.484-8.116-8.484C156.153,50.772,152.001,57.614,152.001,69.732z"/>
	<path d="M210.605,83.478c3.265,7.265,9.27,11.476,17.064,11.476c6.108,0,11.059-2.633,13.271-6.948l1.054,0.317
		c-2.844,9.159-10.852,14.525-21.699,14.525c-16.015,0-27.609-11.578-27.609-27.581c0-15.793,11.281-27.163,27.189-27.163
		c11.063,0,20.435,5.474,20.435,13.267c0,4.531-3.263,9.163-9.061,12.003L210.605,83.478z M207.759,68.953
		c0,4.736,0.736,8.945,1.998,12.524l2.85-1.368c8.219-3.998,14.589-11.052,14.589-19.159c0-6.317-4.584-10.146-9.218-10.146
		C212.075,50.805,207.759,57.157,207.759,68.953z"/>
	<path d="M247.672,101.268c2.002-0.946,3.161-4.525,3.161-9.999V62.845c0-5.473-1.159-9.056-3.161-10.002v-0.526l17.911-3.159v10.74
		c4.949-7.265,12.322-11.792,19.697-11.792c8.847,0,14.009,6.634,14.009,17.9v25.265c0,5.474,1.161,9.053,3.159,9.999v0.528h-21.064
		v-0.528c1.998-0.946,3.159-4.525,3.159-9.999V66.004c0-7.162-2.739-11.057-7.584-11.057c-4.427,0-8.219,3.057-11.376,8.954v27.368
		c0,5.474,1.155,9.053,3.157,9.999v0.528h-21.068V101.268z"/>
	<path d="M310.97,101.268c2.001-0.946,3.159-4.525,3.159-9.999V62.845c0-5.473-1.158-9.056-3.159-10.002v-0.526l17.906-3.159v42.112
		c0,5.474,1.16,9.053,3.161,9.999v0.528H310.97V101.268z"/>
</g>
<g>
	<rect x="48.9" y="117.59" fill="#808285" width="1.498" height="10.598"/>
	<polygon fill="#808285" points="71.479,128.188 63.946,119.677 63.946,128.188 62.408,128.188 62.408,117.59 64.098,117.59 
		71.571,125.939 71.571,117.59 73.21,117.59 73.21,128.188 	"/>
	<polygon fill="#808285" points="87.262,128.188 87.262,119.046 83.064,119.046 83.064,117.59 92.999,117.59 92.999,119.046 
		88.74,119.046 88.74,128.188 	"/>
	<polygon fill="#808285" points="102.81,128.188 102.81,117.59 112.705,117.59 112.705,119.046 104.288,119.046 104.288,122.089 
		109.072,122.089 109.072,123.466 104.288,123.466 104.288,126.729 113.008,126.729 113.008,128.188 	"/>
	<path fill="#808285" d="M133.138,128.188l-3.189-3.978h-4.784v3.978h-1.577V117.59h7.974c1.959,0,3.131,1.713,3.131,3.372
		c0,2.142-1.465,2.821-2.977,3.152l3.274,4.074H133.138z M131.319,122.774c0.945,0,1.712-0.813,1.712-1.813
		c0-1.673-1.198-1.857-1.712-1.857h-6.154v3.669H131.319z"/>
	<rect x="145.333" y="117.59" fill="#808285" width="1.497" height="10.598"/>
	<path fill="#808285" d="M163.99,128.388c-3.25,0-6.542-1.899-6.542-5.532c0-3.771,3.391-5.488,6.542-5.488
		c3.251,0,6.542,1.884,6.542,5.488C170.532,126.489,167.241,128.388,163.99,128.388z M163.99,118.947
		c-2.387,0-4.921,1.37-4.921,3.909c0,2.376,2.023,4.035,4.921,4.035c2.4,0,4.883-1.508,4.883-4.035
		C168.873,120.29,166.416,118.947,163.99,118.947z"/>
	<path fill="#808285" d="M190.138,128.188l-3.188-3.978h-4.784v3.978h-1.577V117.59h7.974c1.959,0,3.132,1.713,3.132,3.372
		c0,2.142-1.466,2.821-2.978,3.152l3.275,4.074H190.138z M188.319,122.774c0.945,0,1.714-0.813,1.714-1.813
		c0-1.673-1.198-1.857-1.714-1.857h-6.154v3.669H188.319z"/>
	<path fill="#808285" d="M221.176,128.188V117.59h6.357c2.843,0,5.171,2.344,5.192,5.226c0,2.661-1.772,5.353-5.156,5.373l0,0
		H221.176z M227.293,126.729c1.155,0,2.072-0.342,2.729-1.012c0.698-0.709,1.066-1.767,1.042-2.977
		c-0.067-2.238-1.479-3.574-3.771-3.574h-4.579v7.563H227.293z"/>
	<polygon fill="#808285" points="243.063,128.188 243.063,117.59 252.958,117.59 252.958,119.046 244.541,119.046 244.541,122.089 
		249.325,122.089 249.325,123.466 244.541,123.466 244.541,126.729 253.259,126.729 253.259,128.188 	"/>
	<path fill="#808285" d="M268.565,128.429c-1.938-0.039-4.107-0.632-5.954-1.634l-0.146-0.08l0.837-1.497l0.152,0.11
		c1.339,0.981,3.111,1.522,4.986,1.522c1.924-0.042,4.008-0.585,4.075-1.983c0.018-0.34-0.078-0.618-0.287-0.847
		c-0.485-0.526-1.46-0.636-1.995-0.655l-3.838-0.204c-1.609-0.08-3.261-0.951-3.324-2.716c0-2.463,3.225-3.119,5.128-3.119
		c1.779,0,3.324,0.539,5.093,1.347l0.177,0.082l-0.854,1.267l-0.128-0.062c-1.39-0.696-2.967-1.095-4.327-1.095
		c-1.042,0-3.47,0.146-3.47,1.492c0,0.545,0.358,1.153,0.936,1.189l5.834,0.383c1.517,0.106,2.679,1.701,2.636,2.952
		c-0.099,3.294-4.188,3.549-5.439,3.549H268.565z"/>
	<rect x="284.719" y="117.59" fill="#808285" width="1.499" height="10.598"/>
	<path fill="#808285" d="M303.412,128.429c-3.533,0-6.297-2.447-6.297-5.573c0-3.707,3.303-5.387,6.581-5.408
		c2.353,0,4.958,1.552,5.071,1.618l0.152,0.092l-0.922,1.254l-0.131-0.078c-1.368-0.857-3.009-1.348-4.494-1.348
		c-2.25,0-4.604,1.449-4.642,3.873c-0.019,0.952,0.396,1.928,1.137,2.685c0.621,0.631,1.744,1.388,3.583,1.388
		c2.651-0.039,3.523-0.67,4.278-1.436v-1.488h-3.813v-1.373h5.333v3.708l-0.06,0.048c-1.492,1.274-3.569,2.017-5.695,2.038H303.412z
		"/>
	<polygon fill="#808285" points="328.922,128.188 321.388,119.677 321.388,128.188 319.85,128.188 319.85,117.59 321.54,117.59 
		329.014,125.939 329.014,117.59 330.651,117.59 330.651,128.188 	"/>
</g>
</svg>
