<?xml version="1.0" encoding="UTF-8" standalone="no"?><!DOCTYPE svg PUBLIC "-//W3C//DTD SVG 1.1//EN" "http://www.w3.org/Graphics/SVG/1.1/DTD/svg11.dtd"><svg width="100%" height="100%" viewBox="0 0 229 224" version="1.1" xmlns="http://www.w3.org/2000/svg" xmlns:xlink="http://www.w3.org/1999/xlink" xml:space="preserve" xmlns:serif="http://www.serif.com/" style="fill-rule:evenodd;clip-rule:evenodd;stroke-linejoin:round;stroke-miterlimit:2;"><path d="M0,221.508c8.333,-3.942 13.163,-18.854 13.163,-41.663l0,-118.433c0,-22.804 -4.829,-37.733 -13.163,-41.675l0,-2.192l74.608,-13.162l0,44.75c20.629,-30.271 51.367,-49.133 82.079,-49.133c36.879,0 58.387,27.642 58.387,74.583l0,105.271c0,22.808 4.812,37.721 13.158,41.663l0,2.2l-87.788,0l0,-2.2c8.342,-3.942 13.175,-18.854 13.175,-41.663l0,-105.279c0,-29.842 -11.408,-46.071 -31.588,-46.071c-18.45,0 -34.25,12.738 -47.421,37.308l0,114.033c0,22.808 4.838,37.721 13.171,41.663l0,2.2l-87.783,0l0,-2.2Z" style="fill:#fff;fill-rule:nonzero;"/></svg>